<svg width="1004" height="832" viewBox="0 0 1004 832" fill="none" xmlns="http://www.w3.org/2000/svg">
<path fill-rule="evenodd" clip-rule="evenodd" d="M162.182 -18.9229C249.933 -99.3671 431.511 -93.1946 546.589 -80.6C643.535 -69.9899 714.952 -13.7698 783.724 61.2759C864.806 149.756 850.915 182.5 1015.15 206.538C1125.43 222.681 1111.92 417.69 1080.93 528.838C1049.26 642.453 961.875 749.194 850.915 795.604C747.253 838.963 642.975 753.452 532.493 758.235C421.365 763.045 313.243 859.816 210.785 823.315C102.753 784.828 10.8443 682.916 0.955923 568.873C-8.72456 457.226 162.182 397.653 162.182 283C162.182 177.5 72.4826 63.308 162.182 -18.9229Z" fill="#63338F"/>
<path fill-rule="evenodd" clip-rule="evenodd" d="M162.182 -18.9229C249.933 -99.3671 431.511 -93.1946 546.589 -80.6C643.535 -69.9899 714.952 -13.7698 783.724 61.2759C864.806 149.756 850.915 182.5 1015.15 206.538C1125.43 222.681 1111.92 417.69 1080.93 528.838C1049.26 642.453 961.875 749.194 850.915 795.604C747.253 838.963 642.975 753.452 532.493 758.235C421.365 763.045 313.243 859.816 210.785 823.315C102.753 784.828 10.8443 682.916 0.955923 568.873C-8.72456 457.226 162.182 397.653 162.182 283C162.182 177.5 72.4826 63.308 162.182 -18.9229Z" fill="url(#paint0_linear_1_43)" fill-opacity="0.38"/>
<defs>
<linearGradient id="paint0_linear_1_43" x1="104.877" y1="97.3366" x2="1045.69" y2="582.751" gradientUnits="userSpaceOnUse">
<stop stop-opacity="0"/>
<stop offset="0.67592" stop-color="#FFCB47" stop-opacity="0.62"/>
</linearGradient>
</defs>
</svg>
