<svg id="Camada_1" data-name="Camada 1" xmlns="http://www.w3.org/2000/svg" xmlns:xlink="http://www.w3.org/1999/xlink" viewBox="0 0 953.46 983.05"><defs><style>.cls-1{fill:url(#Nova_amostra_de_gradiente_2);}.cls-2{fill:url(#Gradiente_sem_nome_88);}.cls-3{fill:url(#Gradiente_sem_nome_88-2);}.cls-4{fill:#e6c298;}</style><linearGradient id="Nova_amostra_de_gradiente_2" x1="313.03" y1="454.21" x2="313.03" y2="1028.26" gradientUnits="userSpaceOnUse"><stop offset="0" stop-color="#e6c2b3"/><stop offset="0.5" stop-color="#63338f"/><stop offset="1" stop-color="#34338f"/></linearGradient><linearGradient id="Gradiente_sem_nome_88" x1="822.7" y1="336.1" x2="822.7" y2="1027.67" xlink:href="#Nova_amostra_de_gradiente_2"/><linearGradient id="Gradiente_sem_nome_88-2" x1="924.24" y1="454" x2="924.24" y2="623.36" xlink:href="#Nova_amostra_de_gradiente_2"/></defs><title>logo</title><path class="cls-1" d="M343.19,1028.24c-114.6,1.31-222.38-70-266.12-175.94C32.32,743.84,58.32,615.6,141.16,536.22c86.53-82.92,210.72-105.84,316.65-55.5,29.74,14.13,58,33.49,83,55.07,38.24,33.09,39.1,85.6,6.07,120.32s-84.16,35.78-121.54,2.57c-55.85-49.62-128.74-46-174.16,8.56-39.53,47.52-35.34,116,9.74,159.25,44,42.23,114.77,43.64,159.77,1.69C444.45,806,470.24,793.92,502.93,801c32.41,7.06,54.08,26.68,63.61,58.24s2.53,59.79-20.41,83.84C494.56,997.2,422.79,1027.33,343.19,1028.24Z" transform="translate(-55.38 -45.21)"/><path class="cls-2" d="M807.45,583.09c0,51.57-.74,103.15.19,154.71,1.25,69.82,48.73,117.91,118.71,121.86,47.62,2.69,83.63,39.92,82.43,85.22-1.25,47.4-38.12,82.61-86.71,82.78-153.73.57-281-121.45-284.24-275.86-2.3-110.18-.84-220.45-.12-330.68.33-49.51,38-85.5,86.39-85,45.87.46,82.12,36.67,82.82,84.55.79,54.14.18,108.29.18,162.44Z" transform="translate(-55.38 -45.21)"/><path class="cls-3" d="M924,623.33c-45.31,1.13-83.62-36.49-84.36-82.82A85.17,85.17,0,0,1,923,454c46.58-.92,85.14,37.85,85.87,86.32C1009.5,584.57,971.08,622.16,924,623.33Z" transform="translate(-55.38 -45.21)"/><path class="cls-4" d="M522.11,179.39c21.55-.06,39.52,18.07,39,39.31-.52,20.44-18.42,38-38.68,37.89-21.46-.08-39.3-18.25-38.84-39.56C484,196.34,501.3,179.44,522.11,179.39Z" transform="translate(-55.38 -45.21)"/><path class="cls-4" d="M592.11,45.21c16.89,0,31,14.16,30.54,30.8-.41,16-14.44,29.76-30.31,29.69-16.82-.07-30.79-14.3-30.44-31A30.42,30.42,0,0,1,592.11,45.21Z" transform="translate(-55.38 -45.21)"/><path class="cls-4" d="M459,75.46c12.24,0,22.45,10.26,22.14,22.33-.3,11.61-10.46,21.57-22,21.52a22.33,22.33,0,0,1-22.07-22.47A22,22,0,0,1,459,75.46Z" transform="translate(-55.38 -45.21)"/></svg>