<?xml version="1.0" encoding="UTF-8"?>
<svg id="Camada_2" data-name="Camada 2" xmlns="http://www.w3.org/2000/svg" viewBox="0 0 953.46 983.05">
  <defs>
    <style>
      .cls-1 {
        fill: #fff;
      }
    </style>
  </defs>
  <g id="Camada_1-2" data-name="Camada 1">
    <g>
      <path class="cls-1" d="M287.81,983.03c-114.6,1.31-222.38-69.95-266.12-175.94-44.76-108.46-18.75-236.7,64.09-316.08,86.53-82.92,210.72-105.83,316.65-55.5,29.74,14.13,58.02,33.48,82.97,55.07,38.24,33.09,39.1,85.6,6.07,120.31-33.01,34.7-84.16,35.79-121.54,2.58-55.85-49.62-128.74-46.04-174.16,8.56-39.54,47.53-35.35,116.02,9.74,159.26,44.04,42.23,114.76,43.64,159.77,1.69,23.78-22.17,49.58-34.26,82.27-27.14,32.41,7.06,54.08,26.67,63.61,58.24,9.52,31.51,2.52,59.79-20.42,83.84-51.56,54.07-123.33,84.21-202.93,85.12Z"/>
      <g>
        <path class="cls-1" d="M752.08,537.88c0,51.57-.74,103.15,.18,154.71,1.25,69.83,48.73,117.92,118.72,121.87,47.61,2.69,83.63,39.92,82.43,85.21-1.25,47.41-38.12,82.61-86.71,82.79-153.73,.56-281.03-121.45-284.24-275.86-2.29-110.18-.84-220.45-.11-330.68,.32-49.51,38.04-85.5,86.39-85.02,45.87,.46,82.12,36.66,82.82,84.55,.8,54.13,.18,108.29,.18,162.43,.12,0,.23,0,.35,0Z"/>
        <path class="cls-1" d="M868.64,578.12c-45.3,1.12-83.61-36.49-84.36-82.82-.75-46.81,36.58-85.58,83.3-86.5,46.57-.91,85.14,37.86,85.87,86.33,.66,44.23-37.76,81.82-84.82,82.99Z"/>
      </g>
      <path class="cls-1" d="M466.73,134.18c21.55-.05,39.52,18.07,38.98,39.32-.52,20.44-18.42,37.97-38.68,37.89-21.46-.09-39.29-18.25-38.84-39.56,.44-20.69,17.75-37.6,38.55-37.65Z"/>
      <path class="cls-1" d="M536.73,0c16.89-.04,30.96,14.16,30.54,30.8-.41,16.02-14.44,29.75-30.31,29.69-16.81-.07-30.79-14.3-30.43-31C506.87,13.28,520.43,.04,536.73,0Z"/>
      <path class="cls-1" d="M403.66,30.25c12.24-.03,22.45,10.27,22.14,22.33-.3,11.61-10.47,21.57-21.97,21.52-12.19-.05-22.32-10.37-22.06-22.47,.25-11.75,10.08-21.36,21.9-21.38Z"/>
    </g>
  </g>
</svg>